<svg xmlns="http://www.w3.org/2000/svg" version="1.1" xmlns:xlink="http://www.w3.org/1999/xlink" xmlns:svgjs="http://svgjs.dev/svgjs" viewBox="0 0 800 800"><g><circle r="50.5" cx="0" cy="0" fill="hsl(191, 90%, 52%)"></circle><circle r="50.5" cx="0" cy="101" fill="hsl(220, 90%, 52%)"></circle><circle r="50.5" cx="0" cy="202" fill="hsl(226, 90%, 52%)"></circle><circle r="50.5" cx="0" cy="303" fill="hsl(194, 90%, 52%)"></circle><circle r="50.5" cx="0" cy="404" fill="hsl(167, 90%, 52%)"></circle><circle r="50.5" cx="0" cy="505" fill="hsl(153, 90%, 52%)"></circle><circle r="50.5" cx="0" cy="606" fill="hsl(155, 90%, 52%)"></circle><circle r="50.5" cx="0" cy="707" fill="hsl(162, 90%, 52%)"></circle><circle r="50.5" cx="0" cy="808" fill="hsl(170, 90%, 52%)"></circle><circle r="50.5" cx="101" cy="0" fill="hsl(191, 90%, 52%)"></circle><circle r="50.5" cx="101" cy="101" fill="hsl(216, 90%, 52%)"></circle><circle r="50.5" cx="101" cy="202" fill="hsl(224, 90%, 52%)"></circle><circle r="50.5" cx="101" cy="303" fill="hsl(199, 90%, 52%)"></circle><circle r="50.5" cx="101" cy="404" fill="hsl(173, 90%, 52%)"></circle><circle r="50.5" cx="101" cy="505" fill="hsl(156, 90%, 52%)"></circle><circle r="50.5" cx="101" cy="606" fill="hsl(156, 90%, 52%)"></circle><circle r="50.5" cx="101" cy="707" fill="hsl(157, 90%, 52%)"></circle><circle r="50.5" cx="101" cy="808" fill="hsl(162, 90%, 52%)"></circle><circle r="50.5" cx="202" cy="0" fill="hsl(196, 90%, 52%)"></circle><circle r="50.5" cx="202" cy="101" fill="hsl(210, 90%, 52%)"></circle><circle r="50.5" cx="202" cy="202" fill="hsl(221, 90%, 52%)"></circle><circle r="50.5" cx="202" cy="303" fill="hsl(208, 90%, 52%)"></circle><circle r="50.5" cx="202" cy="404" fill="hsl(187, 90%, 52%)"></circle><circle r="50.5" cx="202" cy="505" fill="hsl(167, 90%, 52%)"></circle><circle r="50.5" cx="202" cy="606" fill="hsl(159, 90%, 52%)"></circle><circle r="50.5" cx="202" cy="707" fill="hsl(154, 90%, 52%)"></circle><circle r="50.5" cx="202" cy="808" fill="hsl(153, 90%, 52%)"></circle><circle r="50.5" cx="303" cy="0" fill="hsl(223, 90%, 52%)"></circle><circle r="50.5" cx="303" cy="101" fill="hsl(221, 90%, 52%)"></circle><circle r="50.5" cx="303" cy="202" fill="hsl(226, 90%, 52%)"></circle><circle r="50.5" cx="303" cy="303" fill="hsl(217, 90%, 52%)"></circle><circle r="50.5" cx="303" cy="404" fill="hsl(191, 90%, 52%)"></circle><circle r="50.5" cx="303" cy="505" fill="hsl(161, 90%, 52%)"></circle><circle r="50.5" cx="303" cy="606" fill="hsl(151, 90%, 52%)"></circle><circle r="50.5" cx="303" cy="707" fill="hsl(149, 90%, 52%)"></circle><circle r="50.5" cx="303" cy="808" fill="hsl(153, 90%, 52%)"></circle><circle r="50.5" cx="404" cy="0" fill="hsl(243, 90%, 52%)"></circle><circle r="50.5" cx="404" cy="101" fill="hsl(237, 90%, 52%)"></circle><circle r="50.5" cx="404" cy="202" fill="hsl(233, 90%, 52%)"></circle><circle r="50.5" cx="404" cy="303" fill="hsl(220, 90%, 52%)"></circle><circle r="50.5" cx="404" cy="404" fill="hsl(191, 90%, 52%)"></circle><circle r="50.5" cx="404" cy="505" fill="hsl(156, 90%, 52%)"></circle><circle r="50.5" cx="404" cy="606" fill="hsl(151, 90%, 52%)"></circle><circle r="50.5" cx="404" cy="707" fill="hsl(156, 90%, 52%)"></circle><circle r="50.5" cx="404" cy="808" fill="hsl(163, 90%, 52%)"></circle><circle r="50.5" cx="505" cy="0" fill="hsl(238, 90%, 52%)"></circle><circle r="50.5" cx="505" cy="101" fill="hsl(236, 90%, 52%)"></circle><circle r="50.5" cx="505" cy="202" fill="hsl(228, 90%, 52%)"></circle><circle r="50.5" cx="505" cy="303" fill="hsl(215, 90%, 52%)"></circle><circle r="50.5" cx="505" cy="404" fill="hsl(191, 90%, 52%)"></circle><circle r="50.5" cx="505" cy="505" fill="hsl(164, 90%, 52%)"></circle><circle r="50.5" cx="505" cy="606" fill="hsl(168, 90%, 52%)"></circle><circle r="50.5" cx="505" cy="707" fill="hsl(179, 90%, 52%)"></circle><circle r="50.5" cx="505" cy="808" fill="hsl(180, 90%, 52%)"></circle><circle r="50.5" cx="606" cy="0" fill="hsl(208, 90%, 52%)"></circle><circle r="50.5" cx="606" cy="101" fill="hsl(215, 90%, 52%)"></circle><circle r="50.5" cx="606" cy="202" fill="hsl(210, 90%, 52%)"></circle><circle r="50.5" cx="606" cy="303" fill="hsl(200, 90%, 52%)"></circle><circle r="50.5" cx="606" cy="404" fill="hsl(188, 90%, 52%)"></circle><circle r="50.5" cx="606" cy="505" fill="hsl(185, 90%, 52%)"></circle><circle r="50.5" cx="606" cy="606" fill="hsl(200, 90%, 52%)"></circle><circle r="50.5" cx="606" cy="707" fill="hsl(204, 90%, 52%)"></circle><circle r="50.5" cx="606" cy="808" fill="hsl(190, 90%, 52%)"></circle><circle r="50.5" cx="707" cy="0" fill="hsl(194, 90%, 52%)"></circle><circle r="50.5" cx="707" cy="101" fill="hsl(207, 90%, 52%)"></circle><circle r="50.5" cx="707" cy="202" fill="hsl(202, 90%, 52%)"></circle><circle r="50.5" cx="707" cy="303" fill="hsl(187, 90%, 52%)"></circle><circle r="50.5" cx="707" cy="404" fill="hsl(180, 90%, 52%)"></circle><circle r="50.5" cx="707" cy="505" fill="hsl(197, 90%, 52%)"></circle><circle r="50.5" cx="707" cy="606" fill="hsl(221, 90%, 52%)"></circle><circle r="50.5" cx="707" cy="707" fill="hsl(216, 90%, 52%)"></circle><circle r="50.5" cx="707" cy="808" fill="hsl(191, 90%, 52%)"></circle><circle r="50.5" cx="808" cy="0" fill="hsl(199, 90%, 52%)"></circle><circle r="50.5" cx="808" cy="101" fill="hsl(215, 90%, 52%)"></circle><circle r="50.5" cx="808" cy="202" fill="hsl(204, 90%, 52%)"></circle><circle r="50.5" cx="808" cy="303" fill="hsl(177, 90%, 52%)"></circle><circle r="50.5" cx="808" cy="404" fill="hsl(167, 90%, 52%)"></circle><circle r="50.5" cx="808" cy="505" fill="hsl(194, 90%, 52%)"></circle><circle r="50.5" cx="808" cy="606" fill="hsl(227, 90%, 52%)"></circle><circle r="50.5" cx="808" cy="707" fill="hsl(221, 90%, 52%)"></circle><circle r="50.5" cx="808" cy="808" fill="hsl(191, 90%, 52%)"></circle><circle r="50.5" cx="909" cy="0" fill="hsl(199, 90%, 52%)"></circle><circle r="50.5" cx="909" cy="101" fill="hsl(215, 90%, 52%)"></circle><circle r="50.5" cx="909" cy="202" fill="hsl(204, 90%, 52%)"></circle><circle r="50.5" cx="909" cy="303" fill="hsl(177, 90%, 52%)"></circle><circle r="50.5" cx="909" cy="404" fill="hsl(167, 90%, 52%)"></circle><circle r="50.5" cx="909" cy="505" fill="hsl(194, 90%, 52%)"></circle><circle r="50.5" cx="909" cy="606" fill="hsl(227, 90%, 52%)"></circle><circle r="50.5" cx="909" cy="707" fill="hsl(221, 90%, 52%)"></circle><circle r="50.5" cx="909" cy="808" fill="hsl(191, 90%, 52%)"></circle></g><g transform="matrix(1,0,0,1,-50.5,0)"><circle r="50.5" cx="0" cy="50.5" fill="hsl(207, 90%, 52%)"></circle><circle r="50.5" cx="0" cy="151.5" fill="hsl(229, 90%, 52%)"></circle><circle r="50.5" cx="0" cy="252.5" fill="hsl(216, 90%, 52%)"></circle><circle r="50.5" cx="0" cy="353.5" fill="hsl(179, 90%, 52%)"></circle><circle r="50.5" cx="0" cy="454.5" fill="hsl(156, 90%, 52%)"></circle><circle r="50.5" cx="0" cy="555.5" fill="hsl(152, 90%, 52%)"></circle><circle r="50.5" cx="0" cy="656.5" fill="hsl(158, 90%, 52%)"></circle><circle r="50.5" cx="0" cy="757.5" fill="hsl(168, 90%, 52%)"></circle><circle r="50.5" cx="0" cy="858.5" fill="hsl(170, 90%, 52%)"></circle><circle r="50.5" cx="101" cy="50.5" fill="hsl(205, 90%, 52%)"></circle><circle r="50.5" cx="101" cy="151.5" fill="hsl(225, 90%, 52%)"></circle><circle r="50.5" cx="101" cy="252.5" fill="hsl(217, 90%, 52%)"></circle><circle r="50.5" cx="101" cy="353.5" fill="hsl(185, 90%, 52%)"></circle><circle r="50.5" cx="101" cy="454.5" fill="hsl(160, 90%, 52%)"></circle><circle r="50.5" cx="101" cy="555.5" fill="hsl(155, 90%, 52%)"></circle><circle r="50.5" cx="101" cy="656.5" fill="hsl(156, 90%, 52%)"></circle><circle r="50.5" cx="101" cy="757.5" fill="hsl(160, 90%, 52%)"></circle><circle r="50.5" cx="101" cy="858.5" fill="hsl(162, 90%, 52%)"></circle><circle r="50.5" cx="202" cy="50.5" fill="hsl(203, 90%, 52%)"></circle><circle r="50.5" cx="202" cy="151.5" fill="hsl(219, 90%, 52%)"></circle><circle r="50.5" cx="202" cy="252.5" fill="hsl(219, 90%, 52%)"></circle><circle r="50.5" cx="202" cy="353.5" fill="hsl(198, 90%, 52%)"></circle><circle r="50.5" cx="202" cy="454.5" fill="hsl(173, 90%, 52%)"></circle><circle r="50.5" cx="202" cy="555.5" fill="hsl(163, 90%, 52%)"></circle><circle r="50.5" cx="202" cy="656.5" fill="hsl(157, 90%, 52%)"></circle><circle r="50.5" cx="202" cy="757.5" fill="hsl(152, 90%, 52%)"></circle><circle r="50.5" cx="202" cy="858.5" fill="hsl(153, 90%, 52%)"></circle><circle r="50.5" cx="303" cy="50.5" fill="hsl(221, 90%, 52%)"></circle><circle r="50.5" cx="303" cy="151.5" fill="hsl(224, 90%, 52%)"></circle><circle r="50.5" cx="303" cy="252.5" fill="hsl(225, 90%, 52%)"></circle><circle r="50.5" cx="303" cy="353.5" fill="hsl(205, 90%, 52%)"></circle><circle r="50.5" cx="303" cy="454.5" fill="hsl(170, 90%, 52%)"></circle><circle r="50.5" cx="303" cy="555.5" fill="hsl(155, 90%, 52%)"></circle><circle r="50.5" cx="303" cy="656.5" fill="hsl(150, 90%, 52%)"></circle><circle r="50.5" cx="303" cy="757.5" fill="hsl(151, 90%, 52%)"></circle><circle r="50.5" cx="303" cy="858.5" fill="hsl(153, 90%, 52%)"></circle><circle r="50.5" cx="404" cy="50.5" fill="hsl(240, 90%, 52%)"></circle><circle r="50.5" cx="404" cy="151.5" fill="hsl(234, 90%, 52%)"></circle><circle r="50.5" cx="404" cy="252.5" fill="hsl(231, 90%, 52%)"></circle><circle r="50.5" cx="404" cy="353.5" fill="hsl(207, 90%, 52%)"></circle><circle r="50.5" cx="404" cy="454.5" fill="hsl(167, 90%, 52%)"></circle><circle r="50.5" cx="404" cy="555.5" fill="hsl(151, 90%, 52%)"></circle><circle r="50.5" cx="404" cy="656.5" fill="hsl(153, 90%, 52%)"></circle><circle r="50.5" cx="404" cy="757.5" fill="hsl(161, 90%, 52%)"></circle><circle r="50.5" cx="404" cy="858.5" fill="hsl(163, 90%, 52%)"></circle><circle r="50.5" cx="505" cy="50.5" fill="hsl(239, 90%, 52%)"></circle><circle r="50.5" cx="505" cy="151.5" fill="hsl(232, 90%, 52%)"></circle><circle r="50.5" cx="505" cy="252.5" fill="hsl(224, 90%, 52%)"></circle><circle r="50.5" cx="505" cy="353.5" fill="hsl(204, 90%, 52%)"></circle><circle r="50.5" cx="505" cy="454.5" fill="hsl(172, 90%, 52%)"></circle><circle r="50.5" cx="505" cy="555.5" fill="hsl(162, 90%, 52%)"></circle><circle r="50.5" cx="505" cy="656.5" fill="hsl(175, 90%, 52%)"></circle><circle r="50.5" cx="505" cy="757.5" fill="hsl(181, 90%, 52%)"></circle><circle r="50.5" cx="505" cy="858.5" fill="hsl(180, 90%, 52%)"></circle><circle r="50.5" cx="606" cy="50.5" fill="hsl(213, 90%, 52%)"></circle><circle r="50.5" cx="606" cy="151.5" fill="hsl(213, 90%, 52%)"></circle><circle r="50.5" cx="606" cy="252.5" fill="hsl(206, 90%, 52%)"></circle><circle r="50.5" cx="606" cy="353.5" fill="hsl(194, 90%, 52%)"></circle><circle r="50.5" cx="606" cy="454.5" fill="hsl(183, 90%, 52%)"></circle><circle r="50.5" cx="606" cy="555.5" fill="hsl(190, 90%, 52%)"></circle><circle r="50.5" cx="606" cy="656.5" fill="hsl(204, 90%, 52%)"></circle><circle r="50.5" cx="606" cy="757.5" fill="hsl(195, 90%, 52%)"></circle><circle r="50.5" cx="606" cy="858.5" fill="hsl(190, 90%, 52%)"></circle><circle r="50.5" cx="707" cy="50.5" fill="hsl(203, 90%, 52%)"></circle><circle r="50.5" cx="707" cy="151.5" fill="hsl(206, 90%, 52%)"></circle><circle r="50.5" cx="707" cy="252.5" fill="hsl(196, 90%, 52%)"></circle><circle r="50.5" cx="707" cy="353.5" fill="hsl(182, 90%, 52%)"></circle><circle r="50.5" cx="707" cy="454.5" fill="hsl(186, 90%, 52%)"></circle><circle r="50.5" cx="707" cy="555.5" fill="hsl(209, 90%, 52%)"></circle><circle r="50.5" cx="707" cy="656.5" fill="hsl(222, 90%, 52%)"></circle><circle r="50.5" cx="707" cy="757.5" fill="hsl(198, 90%, 52%)"></circle><circle r="50.5" cx="707" cy="858.5" fill="hsl(191, 90%, 52%)"></circle><circle r="50.5" cx="808" cy="50.5" fill="hsl(210, 90%, 52%)"></circle><circle r="50.5" cx="808" cy="151.5" fill="hsl(212, 90%, 52%)"></circle><circle r="50.5" cx="808" cy="252.5" fill="hsl(193, 90%, 52%)"></circle><circle r="50.5" cx="808" cy="353.5" fill="hsl(169, 90%, 52%)"></circle><circle r="50.5" cx="808" cy="454.5" fill="hsl(179, 90%, 52%)"></circle><circle r="50.5" cx="808" cy="555.5" fill="hsl(211, 90%, 52%)"></circle><circle r="50.5" cx="808" cy="656.5" fill="hsl(228, 90%, 52%)"></circle><circle r="50.5" cx="808" cy="757.5" fill="hsl(200, 90%, 52%)"></circle><circle r="50.5" cx="808" cy="858.5" fill="hsl(191, 90%, 52%)"></circle><circle r="50.5" cx="909" cy="50.5" fill="hsl(210, 90%, 52%)"></circle><circle r="50.5" cx="909" cy="151.5" fill="hsl(212, 90%, 52%)"></circle><circle r="50.5" cx="909" cy="252.5" fill="hsl(193, 90%, 52%)"></circle><circle r="50.5" cx="909" cy="353.5" fill="hsl(169, 90%, 52%)"></circle><circle r="50.5" cx="909" cy="454.5" fill="hsl(179, 90%, 52%)"></circle><circle r="50.5" cx="909" cy="555.5" fill="hsl(211, 90%, 52%)"></circle><circle r="50.5" cx="909" cy="656.5" fill="hsl(228, 90%, 52%)"></circle><circle r="50.5" cx="909" cy="757.5" fill="hsl(200, 90%, 52%)"></circle><circle r="50.5" cx="909" cy="858.5" fill="hsl(191, 90%, 52%)"></circle></g></svg>